<svg width="20" height="20" viewBox="0 0 20 20" xmlns="http://www.w3.org/2000/svg">
<path d="M10.833 6.16699C11.1092 6.16699 11.333 6.39085 11.333 6.66699V17.5H10.333V7.16699H3.83302V17.5H2.83302V6.66699C2.83302 6.39085 3.05687 6.16699 3.33302 6.16699H10.833Z" fill="currentColor"/>
<path d="M12.5 17C12.7761 17 13 17.2239 13 17.5C13 17.7761 12.7761 18 12.5 18H1.667C1.39086 18 1.167 17.7761 1.167 17.5C1.167 17.2239 1.39086 17 1.667 17H12.5Z" fill="currentColor"/>
<path d="M7.48342 8.9191C7.62051 8.67946 7.92537 8.59653 8.16506 8.73355C8.4046 8.87058 8.48838 9.17554 8.35159 9.41519L7.11135 11.5832H7.91702C8.09525 11.5832 8.26017 11.678 8.34963 11.8322C8.43902 11.9863 8.43989 12.1765 8.35159 12.3312L6.68459 15.2482C6.54762 15.4879 6.24169 15.5716 6.00198 15.4347C5.7623 15.2978 5.67862 14.9918 5.81545 14.7521L7.05471 12.5832H6.25002C6.07177 12.5832 5.90686 12.4883 5.81741 12.3341C5.72796 12.18 5.72796 11.9899 5.81643 11.8351L7.48342 8.9191Z" fill="currentColor"/>
<path d="M7.08273 3.25C7.84636 3.25 8.57111 3.58748 9.06222 4.17285C9.23946 4.38433 9.21198 4.69949 9.0007 4.87695C8.78915 5.05444 8.47311 5.02698 8.29562 4.81543C7.99474 4.45689 7.55104 4.25 7.08273 4.25C6.61534 4.25009 6.17058 4.45697 5.86984 4.81543C5.69233 5.02684 5.37724 5.0544 5.16574 4.87695C4.95419 4.69947 4.92674 4.3844 5.10421 4.17285C5.59535 3.58746 6.32034 3.25009 7.08273 3.25Z" fill="currentColor"/>
<path d="M7.08344 1.16699C8.463 1.16711 9.77084 1.77734 10.6577 2.83301C10.8353 3.04446 10.8076 3.36049 10.5961 3.53809C10.3847 3.71533 10.0695 3.68789 9.89203 3.47656C9.19502 2.6467 8.16739 2.16711 7.08344 2.16699C6.00019 2.16699 4.97079 2.64688 4.27484 3.47656C4.09735 3.68787 3.78222 3.71545 3.57074 3.53809C3.35919 3.36064 3.33181 3.04555 3.50922 2.83398C4.39527 1.77767 5.70469 1.16699 7.08344 1.16699Z" fill="currentColor"/>
</svg>
