<svg width="48" height="48" viewBox="0 0 48 48" xmlns="http://www.w3.org/2000/svg">
<path d="M32 19C32.3447 19 32.6649 19.1776 32.8477 19.4697L36.9492 26.0312C37.2417 26.4995 37.0991 27.1165 36.6309 27.4092C36.1626 27.7017 35.5456 27.5591 35.2529 27.0908L31.4463 21H16.5537L11.8477 28.5303C11.7351 28.7102 11.5681 28.8499 11.3711 28.9287L7 30.6768V37H10V39H6C5.44772 39 5 38.5523 5 38V30C5 29.5911 5.24925 29.2232 5.62891 29.0713L10.3252 27.1924L15.1523 19.4697L15.2266 19.3662C15.415 19.1362 15.6982 19 16 19H32Z" fill="currentColor"/>
<path d="M26.5 37C27.0523 37 27.5 37.4477 27.5 38C27.5 38.5523 27.0523 39 26.5 39H18V37H26.5Z" fill="currentColor"/>
<path d="M31.9502 27C32.5024 27.0001 32.9502 27.4478 32.9502 28C32.9502 28.5522 32.5024 28.9999 31.9502 29H11V27H31.9502Z" fill="currentColor"/>
<path d="M17 38C17 36.3433 15.6567 35 14 35C12.3433 35 11 36.3433 11 38C11 39.6567 12.3433 41 14 41C15.6567 41 17 39.6567 17 38ZM19 38C19 40.7613 16.7613 43 14 43C11.2387 43 9 40.7613 9 38C9 35.2387 11.2387 33 14 33C16.7613 33 19 35.2387 19 38Z" fill="currentColor"/>
<path d="M44 37.5C44 33.9103 41.0897 31 37.5 31C33.9103 31 31 33.9103 31 37.5C31 41.0897 33.9103 44 37.5 44C41.0897 44 44 41.0897 44 37.5ZM46 37.5C46 42.1943 42.1943 46 37.5 46C32.8057 46 29 42.1943 29 37.5C29 32.8057 32.8057 29 37.5 29C42.1943 29 46 32.8057 46 37.5Z" fill="currentColor"/>
<path d="M39.7832 35.3026C40.1684 34.907 40.8015 34.8981 41.1973 35.283C41.5928 35.6682 41.6017 36.3014 41.2168 36.6971L37.5166 40.4979C37.33 40.6895 37.0741 40.7978 36.8066 40.7996C36.5391 40.8014 36.2819 40.6958 36.0928 40.5067L33.793 38.2069C33.4024 37.8163 33.4024 37.1833 33.793 36.7928C34.1835 36.4023 34.8165 36.4023 35.207 36.7928L36.79 38.3758L39.7832 35.3026Z" fill="currentColor"/>
</svg>
