<svg width="48" height="48" viewBox="0 0 48 48" xmlns="http://www.w3.org/2000/svg">
<path d="M40.75 27.4404V7C40.75 6.03336 39.9666 5.25 39 5.25H7C6.03336 5.25 5.25 6.03336 5.25 7V35C5.25 35.9666 6.03336 36.75 7 36.75H26.4805C27.1706 36.7503 27.7305 37.3098 27.7305 38C27.7305 38.6902 27.1706 39.2497 26.4805 39.25H7C4.65264 39.25 2.75 37.3474 2.75 35V7C2.75 4.65264 4.65264 2.75 7 2.75H39C41.3474 2.75 43.25 4.65264 43.25 7V27.4404C43.2498 28.1306 42.6902 28.6904 42 28.6904C41.3098 28.6904 40.7502 28.1306 40.75 27.4404Z" fill="currentColor"/>
<path d="M13.2109 19.0303C13.7019 18.6298 14.4261 18.6585 14.8838 19.1162L22 26.2324L27.1162 21.1162C27.6044 20.6281 28.3956 20.6281 28.8838 21.1162C29.3719 21.6044 29.3719 22.3956 28.8838 22.8838L22.8838 28.8838C22.3956 29.3719 21.6044 29.3719 21.1162 28.8838L14 21.7676L4.88379 30.8838L3.11621 29.1162L13.1162 19.1162L13.2109 19.0303Z" fill="currentColor"/>
<path d="M31.75 13C31.75 12.0334 30.9666 11.25 30 11.25C29.0334 11.25 28.25 12.0334 28.25 13C28.25 13.9666 29.0334 14.75 30 14.75C30.9666 14.75 31.75 13.9666 31.75 13ZM34.25 13C34.25 15.3474 32.3474 17.25 30 17.25C27.6526 17.25 25.75 15.3474 25.75 13C25.75 10.6526 27.6526 8.75 30 8.75C32.3474 8.75 34.25 10.6526 34.25 13Z" fill="currentColor"/>
<path d="M43.75 37.5C43.75 34.0484 40.9516 31.25 37.5 31.25C34.0484 31.25 31.25 34.0484 31.25 37.5C31.25 40.9516 34.0484 43.75 37.5 43.75C40.9516 43.75 43.75 40.9516 43.75 37.5ZM46.25 37.5C46.25 42.3324 42.3324 46.25 37.5 46.25C32.6676 46.25 28.75 42.3324 28.75 37.5C28.75 32.6676 32.6676 28.75 37.5 28.75C42.3324 28.75 46.25 32.6676 46.25 37.5Z" fill="currentColor"/>
<path d="M36.25 41.5V33.5C36.25 32.8096 36.8096 32.25 37.5 32.25C38.1904 32.25 38.75 32.8096 38.75 33.5V41.5C38.75 42.1904 38.1904 42.75 37.5 42.75C36.8096 42.75 36.25 42.1904 36.25 41.5Z" fill="currentColor"/>
<path d="M41.5 36.25C42.1904 36.25 42.75 36.8096 42.75 37.5C42.75 38.1904 42.1904 38.75 41.5 38.75H33.5C32.8096 38.75 32.25 38.1904 32.25 37.5C32.25 36.8096 32.8096 36.25 33.5 36.25H41.5Z" fill="currentColor"/>
</svg>
