<svg width="20" height="20" viewBox="0 0 20 20" xmlns="http://www.w3.org/2000/svg">
<path d="M12.083 8.66797L12.1748 8.67676C12.3832 8.71556 12.5486 8.88388 12.5781 9.10059L13.8281 18.2666L12.8379 18.4014L11.6465 9.66797H8.35352L7.16211 18.4014L6.17188 18.2666L7.42188 9.10059L7.44238 9.01074C7.50893 8.80941 7.69821 8.66797 7.91699 8.66797H12.083Z" fill="currentColor"/>
<path d="M16.667 17.832C16.9431 17.832 17.167 18.0559 17.167 18.332C17.167 18.6082 16.9431 18.832 16.667 18.832H3.33301C3.05687 18.832 2.83301 18.6082 2.83301 18.332C2.83301 18.0559 3.05687 17.832 3.33301 17.832H16.667Z" fill="currentColor"/>
<path d="M10.542 4.99902C10.542 4.70017 10.2989 4.45703 10 4.45703C9.70115 4.45704 9.45801 4.70017 9.45801 4.99902C9.45801 5.29788 9.70115 5.54101 10 5.54102C10.2989 5.54102 10.542 5.29788 10.542 4.99902ZM11.542 4.99902C11.542 5.85017 10.8511 6.54102 10 6.54102C9.14886 6.54101 8.45801 5.85016 8.45801 4.99902C8.45801 4.14789 9.14886 3.45704 10 3.45703C10.8511 3.45703 11.542 4.14788 11.542 4.99902Z" fill="currentColor"/>
<path d="M13.2995 7.5918C13.4948 7.78706 13.4948 8.10357 13.2995 8.29883C13.1042 8.49409 12.7877 8.49409 12.5925 8.29883L10.3835 6.08984L11.0905 5.38281L13.2995 7.5918Z" fill="currentColor"/>
<path d="M9.61647 6.08984L7.40749 8.29883C7.21223 8.49409 6.89572 8.49409 6.70046 8.29883C6.5052 8.10357 6.5052 7.78706 6.70046 7.5918L8.90944 5.38281L9.61647 6.08984Z" fill="currentColor"/>
<path d="M6.70046 1.70113C6.89572 1.50587 7.21223 1.50587 7.40749 1.70113L9.61648 3.91012L8.90945 4.61715L6.70046 2.40817C6.5052 2.2129 6.5052 1.8964 6.70046 1.70113Z" fill="currentColor"/>
<path d="M12.5925 1.70113C12.7877 1.50587 13.1042 1.50588 13.2995 1.70113C13.4948 1.89639 13.4948 2.2129 13.2995 2.40816L11.0905 4.61715L10.3835 3.91011L12.5925 1.70113Z" fill="currentColor"/>
<path d="M10.833 15.332C11.1091 15.332 11.333 15.5559 11.333 15.832V18.332H10.333V16.332H9.66699V18.332H8.66699V15.832C8.66699 15.5559 8.89085 15.332 9.16699 15.332H10.833Z" fill="currentColor"/>
</svg>
