<svg width="20" height="20" viewBox="0 0 20 20" xmlns="http://www.w3.org/2000/svg">
<path d="M8.66699 10C8.66699 8.43534 7.39806 7.167 5.83301 7.16699C4.26905 7.16699 3 8.43524 3 10C3 11.5648 4.26906 12.833 5.83301 12.833C7.39805 12.833 8.66699 11.5647 8.66699 10ZM9.66699 10C9.66699 12.1173 7.94995 13.833 5.83301 13.833C3.71697 13.833 2 12.1172 2 10C2 7.88276 3.71696 6.16699 5.83301 6.16699C7.94995 6.167 9.66699 7.88266 9.66699 10Z" fill="currentColor"/>
<path d="M6.375 10C6.375 9.70084 6.13254 9.45802 5.83301 9.45801C5.53478 9.45801 5.292 9.70052 5.29199 10C5.29199 10.2995 5.53478 10.542 5.83301 10.542C6.13255 10.542 6.375 10.2992 6.375 10ZM7.375 10C7.375 10.8508 6.68546 11.542 5.83301 11.542C4.98124 11.542 4.29199 10.8505 4.29199 10C4.292 9.14949 4.98124 8.45801 5.83301 8.45801C6.68545 8.45802 7.375 9.14918 7.375 10Z" fill="currentColor"/>
<path d="M15.75 10C15.75 9.12614 15.0408 8.41699 14.167 8.41699C13.292 8.417 12.583 9.1263 12.583 10C12.583 10.8737 13.292 11.583 14.167 11.583C15.0408 11.583 15.75 10.8739 15.75 10ZM16.75 10C16.75 11.4261 15.5931 12.583 14.167 12.583C12.74 12.583 11.583 11.4263 11.583 10C11.583 8.57371 12.74 7.417 14.167 7.41699C15.5931 7.41699 16.75 8.57386 16.75 10Z" fill="currentColor"/>
<path d="M14.292 10C14.292 9.93114 14.2358 9.875 14.167 9.875C14.0981 9.875 14.042 9.93114 14.042 10C14.042 10.0689 14.0981 10.125 14.167 10.125C14.2358 10.125 14.292 10.0689 14.292 10ZM15.292 10C15.292 10.6211 14.7881 11.125 14.167 11.125C13.5458 11.125 13.042 10.6211 13.042 10C13.042 9.37886 13.5458 8.875 14.167 8.875C14.7881 8.875 15.292 9.37886 15.292 10Z" fill="currentColor"/>
<path d="M14.5537 7.44531L14.4795 7.94043L14.4043 8.43457L6.25781 7.19922L6.4082 6.21094L14.5537 7.44531Z" fill="currentColor"/>
<path d="M14.4795 12.0596L14.5537 12.5537L6.4082 13.7891L6.25781 12.7998L14.4043 11.5654L14.4795 12.0596Z" fill="currentColor"/>
</svg>
