<svg width="20" height="20" viewBox="0 0 20 20" xmlns="http://www.w3.org/2000/svg">
<path d="M4.58301 6.45801C4.74876 6.45801 4.90818 6.52342 5.02539 6.64062L7.94238 9.55762C8.05959 9.67483 8.125 9.83424 8.125 10V15C8.125 15.3452 7.84517 15.625 7.5 15.625H1.66699C1.32181 15.625 1.04199 15.3452 1.04199 15V10C1.04199 9.83447 1.1077 9.67576 1.22461 9.55859L4.14062 6.6416C4.25783 6.52436 4.41723 6.45802 4.58301 6.45801ZM2.29199 10.2578V14.375H6.875V10.2598L4.58203 7.9668L2.29199 10.2578Z" fill="currentColor"/>
<path d="M15.417 8.95801C15.6326 8.95801 15.8331 9.0691 15.9473 9.25195L16.8799 10.7451L17.7324 11.0869C17.9695 11.1819 18.125 11.4116 18.125 11.667V13.333C18.125 13.6782 17.8452 13.958 17.5 13.958H16.667V12.708H16.875V12.0898L16.2256 11.8301C16.1024 11.7807 15.998 11.6936 15.9277 11.5811L15.0703 10.208H12.4297L11.5723 11.5811C11.502 11.6936 11.3976 11.7807 11.2744 11.8301L10.625 12.0898V12.708H10.833V13.958H10C9.65482 13.958 9.375 13.6782 9.375 13.333V11.667C9.37501 11.4116 9.53048 11.1819 9.76758 11.0869L10.6191 10.7451L11.5527 9.25195L11.5996 9.18652C11.7174 9.04288 11.8945 8.95801 12.083 8.95801H15.417Z" fill="currentColor"/>
<path d="M15 12.708V13.958H12.5V12.708H15Z" fill="currentColor"/>
<path d="M16.458 10.625V11.875H11.042V10.625H16.458Z" fill="currentColor"/>
<path d="M11.875 13.333C11.875 13.2182 11.7818 13.125 11.667 13.125C11.5507 13.125 11.458 13.2187 11.458 13.333C11.458 13.4488 11.5512 13.542 11.667 13.542C11.7813 13.542 11.875 13.4493 11.875 13.333ZM13.125 13.333C13.125 14.1387 12.4727 14.792 11.667 14.792C10.8608 14.792 10.208 14.1392 10.208 13.333C10.208 12.5273 10.8613 11.875 11.667 11.875C12.4722 11.875 13.125 12.5278 13.125 13.333Z" fill="currentColor"/>
<path d="M16.042 13.333C16.042 13.2187 15.9493 13.125 15.833 13.125C15.7182 13.125 15.625 13.2182 15.625 13.333C15.625 13.4493 15.7187 13.542 15.833 13.542C15.9488 13.542 16.042 13.4488 16.042 13.333ZM17.292 13.333C17.292 14.1392 16.6392 14.792 15.833 14.792C15.0273 14.792 14.375 14.1387 14.375 13.333C14.375 12.5278 15.0278 11.875 15.833 11.875C16.6387 11.875 17.292 12.5273 17.292 13.333Z" fill="currentColor"/>
<path d="M14.167 2.70801V3.95801H5.83301V2.70801H14.167Z" fill="currentColor"/>
<path d="M7.05859 1.22439C7.30277 0.980734 7.6985 0.98133 7.94238 1.22536C8.18604 1.46954 8.18544 1.86527 7.94141 2.10915L6.7168 3.33181L7.94238 4.55739C8.18646 4.80147 8.18646 5.19808 7.94238 5.44216C7.6983 5.68623 7.30169 5.68624 7.05762 5.44216L5.39062 3.77517C5.27342 3.65796 5.20801 3.49854 5.20801 3.33279C5.20803 3.16699 5.27433 3.0076 5.3916 2.8904L7.05859 1.22439Z" fill="currentColor"/>
<path d="M12.0576 1.22536C12.3015 0.981329 12.6972 0.980736 12.9414 1.22438L14.6084 2.8904C14.7257 3.0076 14.792 3.16699 14.792 3.33278C14.792 3.49854 14.7266 3.65796 14.6094 3.77517L12.9424 5.44216C12.6983 5.68623 12.3017 5.68623 12.0576 5.44216C11.8136 5.19808 11.8136 4.80147 12.0576 4.55739L13.2822 3.33181L12.0586 2.10915C11.8146 1.86526 11.814 1.46954 12.0576 1.22536Z" fill="currentColor"/>
</svg>
